<svg width="100%" height="100%" id="svg" viewBox="0 0 1440 700" xmlns="http://www.w3.org/2000/svg"
     class="transition duration-300 ease-in-out delay-150">
    <defs>
        <linearGradient id="gradient" x1="2%" y1="65%" x2="98%" y2="35%">
            <stop offset="5%" stop-color="#eb144c66"></stop>
            <stop offset="95%" stop-color="#ff690066"></stop>
        </linearGradient>
    </defs>
    <path d="M 0,700 C 0,700 0,175 0,175 C 121.65550239234452,151.07655502392345 243.31100478468903,127.15311004784687 329,129 C 414.68899521531097,130.84688995215313 464.4114832535885,158.46411483253593 561,186 C 657.5885167464115,213.53588516746407 801.0430622009571,240.99043062200954 895,233 C 988.9569377990429,225.00956937799046 1033.4162679425838,181.57416267942585 1116,166 C 1198.5837320574162,150.42583732057415 1319.2918660287082,162.71291866028707 1440,175 C 1440,175 1440,700 1440,700 Z"
          stroke="none" stroke-width="0" fill="url(#gradient)"
          class="transition-all duration-300 ease-in-out delay-150 path-0"></path>
    <defs>
        <linearGradient id="gradient" x1="2%" y1="65%" x2="98%" y2="35%">
            <stop offset="5%" stop-color="#eb144c88"></stop>
            <stop offset="95%" stop-color="#ff690088"></stop>
        </linearGradient>
    </defs>
    <path d="M 0,700 C 0,700 0,350 0,350 C 71.40669856459331,311.9138755980861 142.81339712918663,273.82775119617224 238,296 C 333.1866028708134,318.17224880382776 452.153110047847,400.60287081339715 556,412 C 659.846889952153,423.39712918660285 748.5741626794259,363.7607655502392 850,357 C 951.4258373205741,350.2392344497608 1065.55023923445,396.35406698564594 1166,404 C 1266.44976076555,411.64593301435406 1353.2248803827752,380.82296650717706 1440,350 C 1440,350 1440,700 1440,700 Z"
          stroke="none" stroke-width="0" fill="url(#gradient)"
          class="transition-all duration-300 ease-in-out delay-150 path-1"></path>
    <defs>
        <linearGradient id="gradient" x1="2%" y1="65%" x2="98%" y2="35%">
            <stop offset="5%" stop-color="#eb144cff"></stop>
            <stop offset="95%" stop-color="#ff6900ff"></stop>
        </linearGradient>
    </defs>
    <path d="M 0,700 C 0,700 0,525 0,525 C 112.31578947368422,564.0717703349283 224.63157894736844,603.1435406698564 315,582 C 405.36842105263156,560.8564593301436 473.7894736842105,479.49760765550235 553,465 C 632.2105263157895,450.50239234449765 722.2105263157896,502.8660287081341 818,530 C 913.7894736842104,557.1339712918659 1015.3684210526314,559.0382775119617 1120,554 C 1224.6315789473686,548.9617224880383 1332.3157894736842,536.9808612440191 1440,525 C 1440,525 1440,700 1440,700 Z"
          stroke="none" stroke-width="0" fill="url(#gradient)"
          class="transition-all duration-300 ease-in-out delay-150 path-2"></path>
</svg>